<svg xmlns="http://www.w3.org/2000/svg" viewBox="0 0 40 40" fill="none">
  <!-- F letterform -->
  <path d="M4 8 L4 32 L8 32 L8 22 L18 22 L18 18 L8 18 L8 12 L20 12 L20 8 Z" fill="#f59e0b"/>
  <!-- P letterform -->
  <path d="M22 8 L22 32 L26 32 L26 22 L30 22 C34.4 22 37 19.5 37 15 C37 10.5 34.4 8 30 8 Z M26 12 L30 12 C31.9 12 33 13 33 15 C33 17 31.9 18 30 18 L26 18 Z" fill="#f59e0b"/>
  <!-- ECG pulse line threading through bottom -->
  <polyline points="4,36 10,36 12,30 15,38 17,33 20,36 36,36" stroke="#f59e0b" stroke-width="1.8" stroke-linecap="round" stroke-linejoin="round" fill="none" opacity="0.7"/>
</svg>
