<svg xmlns="http://www.w3.org/2000/svg" viewBox="0 0 32 32" fill="none">
  <rect width="32" height="32" rx="7" fill="#0f0f0f"/>
  <!-- F letterform -->
  <path d="M3 6 L3 24 L6.5 24 L6.5 16.5 L14 16.5 L14 13.5 L6.5 13.5 L6.5 9 L15 9 L15 6 Z" fill="#f59e0b"/>
  <!-- P letterform -->
  <path d="M17 6 L17 24 L20.5 24 L20.5 17 L23.5 17 C27 17 29 14.8 29 11.5 C29 8.2 27 6 23.5 6 Z M20.5 9 L23.5 9 C25.1 9 25.8 10 25.8 11.5 C25.8 13 25.1 14 23.5 14 L20.5 14 Z" fill="#f59e0b"/>
  <!-- ECG pulse underline -->
  <polyline points="3,28 8,28 10,24 12,30 14,26 16,28 29,28" stroke="#f59e0b" stroke-width="1.5" stroke-linecap="round" stroke-linejoin="round" fill="none" opacity="0.65"/>
</svg>
