<svg xmlns="http://www.w3.org/2000/svg" viewBox="0 0 64 64" fill="none">
  <rect width="64" height="64" rx="14" fill="#0a0a0a"/>
  <!-- Cargo -->
  <rect x="5" y="16" width="32" height="24" rx="3" fill="#f59e0b"/>
  <!-- Cab -->
  <path d="M37 22 L37 40 L51 40 L51 30 L45 22 Z" fill="#f59e0b"/>
  <!-- Window -->
  <path d="M39 24 L39 36 L49 36 L49 30 L44 24 Z" fill="#0a0a0a" opacity="0.5"/>
  <!-- Wheels -->
  <circle cx="15" cy="44" r="7" fill="#1a1a1a"/>
  <circle cx="15" cy="44" r="4" fill="#f59e0b"/>
  <circle cx="15" cy="44" r="1.5" fill="#0a0a0a"/>
  <circle cx="44" cy="44" r="7" fill="#1a1a1a"/>
  <circle cx="44" cy="44" r="4" fill="#f59e0b"/>
  <circle cx="44" cy="44" r="1.5" fill="#0a0a0a"/>
  <!-- Pulse line -->
  <polyline
    points="3,56 11,56 15,47 20,60 23,51 27,56 61,56"
    stroke="#f59e0b"
    stroke-width="2.5"
    stroke-linecap="round"
    stroke-linejoin="round"
    fill="none"
  />
</svg>
